<svg width="124" height="90" viewBox="0 0 124 90" fill="none" xmlns="http://www.w3.org/2000/svg">
<path d="M71.9517 29.9352C74.6855 28.4988 76.5632 25.837 76.5632 21.6324C76.5632 16.7361 72.6485 12.2139 65.1926 12.2139H53.5604V17.2632C54.6419 16.9313 55.7561 16.715 56.8839 16.6184V15.2384H65.6783C70.5027 15.2384 73.2382 18.3789 73.2382 22.1031C73.2382 25.6113 68.7094 28.8341 68.7094 28.8341V31.9956C73.4672 32.6841 75.7576 35.6425 75.7576 39.4521C75.7576 43.8695 72.7021 46.9569 66.4288 46.9569H56.8904V45.1626C55.7626 45.0659 54.6484 44.8497 53.5669 44.5177V49.9992H64.9879C73.4591 49.9992 79.0891 46.541 79.0891 39.6214C79.0827 34.1915 75.8648 31.0525 71.9517 29.9352Z" fill="white"/>
<path d="M45.4171 30.9557C45.4171 23.8411 50.9855 18.4176 58.0499 18.4176C61.3913 18.4176 64.4191 19.488 66.6461 21.5259L64.6969 23.8749C63.0611 22.3546 60.6603 21.4228 58.0499 21.4228C52.6554 21.4228 48.6529 25.5677 48.6529 30.9557C48.6529 36.3437 52.6554 40.4887 58.0499 40.4887C60.0332 40.4887 62.1222 40.0405 63.6524 39.1425V32.1988H56.7618L58.1197 29.1597H66.82V40.7305C64.523 42.4572 61.2873 43.4939 58.0483 43.4939C50.9855 43.4939 45.4171 38.072 45.4171 30.9557Z" fill="white"/>
<path d="M62.7199 53.58C50.1748 53.58 39.9786 43.4506 39.9786 31.0091C39.9786 18.5677 50.183 8.43819 62.7199 8.43819C66.7328 8.43536 70.6742 9.49261 74.1393 11.5014L76.2038 9.45225C72.1594 6.94924 67.4878 5.62471 62.7215 5.62972C48.6138 5.62972 37.1359 17.0216 37.1359 31.0237C37.1359 45.0257 48.6057 56.3949 62.7199 56.3949C67.0552 56.4009 71.32 55.3066 75.1091 53.2157L73.0136 51.1359C69.8254 52.7473 66.2976 53.5849 62.7199 53.58Z" fill="white"/>
<path d="M62.7202 58.1488C47.6314 58.1488 35.3673 45.9702 35.3673 31.0008C35.3673 16.0315 47.6314 3.85282 62.7202 3.85282C67.0323 3.85224 71.2831 4.86418 75.1257 6.80596C78.9683 8.74774 82.2935 11.5643 84.8297 15.0255L86.8943 12.9763C86.0377 11.851 85.1042 10.7855 84.1003 9.78737C79.8731 5.59163 74.4873 2.73426 68.6239 1.57657C62.7605 0.418886 56.6829 1.0129 51.1596 3.28348C45.6364 5.55406 40.9156 9.39926 37.5942 14.3327C34.2728 19.2662 32.5 25.0665 32.5 31C32.5 36.9335 34.2728 42.7338 37.5942 47.6673C40.9156 52.6007 45.6364 56.4459 51.1596 58.7166C56.6829 60.9871 62.7605 61.5811 68.6239 60.4234C74.4873 59.2658 79.8731 56.4084 84.1003 52.2126C85.2036 51.1174 86.2212 49.9403 87.1444 48.6916L85.0685 46.6376C82.5453 50.1933 79.198 53.0949 75.3088 55.0982C71.4195 57.1015 67.1021 58.1477 62.7202 58.1488Z" fill="white"/>
<path d="M12.5673 71.4366V76.0648C11.1373 77.098 9.42066 77.6678 7.65204 77.696C3.91141 77.696 1.00106 74.9158 1.00106 71.3284C1.00106 67.7409 3.94683 65 7.77815 65C9.55602 65.0032 11.2764 65.6252 12.6396 66.7579L11.4281 68.3189C10.4305 67.4083 9.12908 66.896 7.77392 66.8802C5.1895 66.8802 3.16615 68.8364 3.16615 71.3284C3.16615 73.8203 5.20785 75.7948 7.79235 75.7948C8.82116 75.7654 9.82416 75.4686 10.7013 74.9341V71.4366H12.5673Z" fill="white"/>
<path d="M16.6343 69.962C17.2847 68.671 18.4423 67.9932 19.9597 67.9932V69.962C18.0257 69.8551 16.7973 70.9843 16.6343 72.617V77.6038H14.5557V68.0649H16.6343V69.962Z" fill="white"/>
<path d="M29.2307 73.6251H21.9659C22.2918 75.0961 23.4299 76.0158 24.9484 76.0158C25.4524 76.0214 25.9521 75.9259 26.4181 75.735C26.8841 75.544 27.3057 75.2617 27.6591 74.9048L28.7611 76.0706C27.8204 77.093 26.4475 77.685 24.7856 77.685C21.8214 77.685 19.8689 75.7289 19.8689 72.8601C19.8689 69.9912 21.8752 68.0168 24.7304 67.9985C28.1108 67.9928 29.4837 70.1811 29.2307 73.6251ZM27.424 72.1189C27.3516 70.572 26.3213 69.6425 24.7491 69.6425C23.2313 69.6425 22.1643 70.5931 21.9291 72.1189H27.424Z" fill="white"/>
<path d="M36.2611 76.4421C35.5743 77.2858 34.4716 77.6965 33.08 77.6965C31.0016 77.6965 29.7011 76.4238 29.7011 74.7433C29.7011 73.0037 31.0203 71.8913 33.3338 71.873H36.2424V71.5917C36.2424 70.3894 35.466 69.6721 33.9475 69.6721C33.0262 69.6721 32.0684 69.9956 31.1135 70.6411L30.2632 69.2067C31.5995 68.4163 32.576 68.0043 34.4006 68.0043C36.8777 68.0043 38.2692 69.2601 38.2872 71.3583L38.3044 77.6191H36.2611V76.4421ZM36.2424 74.2524V73.3736H33.6414C32.2856 73.3736 31.6576 73.7335 31.6576 74.6476C31.6576 75.5083 32.3659 76.0652 33.5181 76.0652C34.9957 76.0652 36.1349 75.2931 36.2424 74.2524Z" fill="white"/>
<path d="M45.6229 76.9928C44.9124 77.4365 44.0937 77.6797 43.2549 77.6959C41.8095 77.6959 40.5628 76.8718 40.5628 74.9157V69.9613H39.207V68.4143H40.5628V65.8043H42.6304V68.4228H45.4638V69.9697H42.6304V74.5444C42.6304 75.5288 43.0097 75.8354 43.6599 75.8354C44.0937 75.8354 44.5461 75.6947 45.1053 75.4219L45.6229 76.9928Z" fill="white"/>
<path d="M54.9854 73.6251H47.7199C48.0454 75.0961 49.1832 76.0158 50.7024 76.0158C51.2064 76.0214 51.7061 75.9259 52.1721 75.735C52.6374 75.544 53.0597 75.2617 53.4131 74.9048L54.5151 76.0706C53.5759 77.093 52.2015 77.685 50.5396 77.685C47.5751 77.685 45.6229 75.7289 45.6229 72.8601C45.6229 69.9912 47.6289 68.0168 50.4859 67.9985C53.8648 67.9928 55.2406 70.1811 54.9854 73.6251ZM53.178 72.1189C53.1056 70.572 52.0753 69.6425 50.5024 69.6425C48.9853 69.6425 47.9178 70.5931 47.6841 72.1189H53.178Z" fill="white"/>
<path d="M58.3285 69.962C58.9788 68.671 60.1359 67.9932 61.6537 67.9932V69.962C59.7194 69.8551 58.4912 70.9843 58.3285 72.617V77.6038H56.2494V68.0649H58.3285V69.962Z" fill="white"/>
<path d="M71.8471 65.0503C74.4682 65.0503 76.0978 66.2344 76.0978 68.1892C76.0978 69.6067 75.2475 70.6643 73.876 70.9878C75.5766 71.269 76.5867 72.477 76.5867 74.1632C76.5867 76.3148 74.8338 77.6071 71.9775 77.6071H66.3582V65.0503H71.8471ZM68.486 70.2536H71.7452C73.0995 70.2536 73.9126 69.6264 73.9126 68.5661C73.9126 67.5057 73.0995 66.9334 71.7452 66.9334H68.486V70.2536ZM68.486 75.7242H71.7452C73.4071 75.7242 74.4001 75.0786 74.4001 73.896C74.4001 72.785 73.4085 72.1212 71.7452 72.1212H68.486V75.7242Z" fill="white"/>
<path d="M87.209 72.8364C87.209 75.7067 85.1671 77.6797 82.2033 77.6797C79.2387 77.6797 77.179 75.7109 77.179 72.8364C77.179 69.962 79.2208 67.9932 82.2033 67.9932C85.1857 67.9932 87.209 69.9479 87.209 72.8364ZM79.2574 72.8547C79.2574 74.7012 80.4676 75.957 82.2033 75.957C83.939 75.957 85.1377 74.7012 85.1377 72.8547C85.1377 71.0083 83.9275 69.7693 82.2104 69.7693C80.4927 69.7693 79.2574 71.0251 79.2574 72.8547Z" fill="white"/>
<path d="M94.7091 68.9437L93.9505 70.4681C93.101 69.9478 92.0349 69.6244 91.1853 69.6244C90.3716 69.6244 89.7679 69.8929 89.7679 70.575C89.7679 72.3328 94.8833 71.3822 94.8689 74.8431C94.8689 76.7992 93.116 77.6782 91.1853 77.6782C89.7679 77.6782 88.2759 77.2113 87.3181 76.3507L88.0594 74.8797C88.8896 75.6151 90.2275 76.0638 91.2756 76.0638C92.161 76.0638 92.8486 75.7586 92.8486 75.0414C92.8486 73.0853 87.787 74.1793 87.8056 70.7354C87.8056 68.7988 89.5062 67.9733 91.348 67.9733C92.5597 67.9748 93.8416 68.3334 94.7091 68.9437Z" fill="white"/>
<path d="M101.504 76.9928C100.794 77.4365 99.9757 77.6797 99.1368 77.6959C97.6915 77.6959 96.4447 76.8718 96.4447 74.9157V69.9613H95.089V68.4143H96.4447V65.8043H98.5052V68.4228H101.339V69.9697H98.5052V74.5444C98.5052 75.5288 98.8845 75.8354 99.5347 75.8354C99.9685 75.8354 100.421 75.6947 100.98 75.4219L101.504 76.9928Z" fill="white"/>
<path d="M111.534 72.8364C111.534 75.7067 109.492 77.6797 106.528 77.6797C103.564 77.6797 101.504 75.7109 101.504 72.8364C101.504 69.962 103.547 67.9932 106.533 67.9932C109.518 67.9932 111.534 69.9479 111.534 72.8364ZM103.583 72.8547C103.583 74.7012 104.794 75.957 106.528 75.957C108.263 75.957 109.456 74.7012 109.456 72.8547C109.456 71.0083 108.246 69.7693 106.528 69.7693C104.811 69.7693 103.583 71.0251 103.583 72.8547Z" fill="white"/>
<path d="M122 71.6706V77.6079H119.922V72.2443C119.922 70.8099 119.054 69.931 117.607 69.931C116.018 69.9478 115.023 71.0419 114.879 72.5312V77.6079H112.8V68.0648H114.879V69.893C115.566 68.5655 116.794 67.9917 118.421 67.9917C120.662 67.9931 122 69.3994 122 71.6706Z" fill="white"/>
<path d="M8.08459 82.9405L7.5362 83.631C7.22806 83.319 6.86098 83.0704 6.45591 82.8993C6.05084 82.7282 5.6158 82.6381 5.1756 82.634C3.37328 82.634 1.92385 84.0163 1.92385 85.7587C1.92385 87.5011 3.37328 88.8835 5.1756 88.8835C6.05536 88.8746 6.89891 88.5348 7.5362 87.9329L8.09591 88.5558C7.2971 89.3184 6.23839 89.7547 5.13029 89.7779C2.82497 89.7779 1 88.0004 1 85.7587C1 83.5396 2.84196 81.786 5.16427 81.786C6.24929 81.7931 7.29179 82.2052 8.08459 82.9405Z" fill="white"/>
<path d="M14.6091 86.0539V89.7328H13.725V86.2916C13.725 85.2383 13.086 84.6153 12.0247 84.6153C10.7495 84.6266 9.99423 85.5209 9.99423 86.8007V89.7328H9.10444V81.333H9.99423V85.1019C10.4051 84.1737 11.2269 83.7434 12.3335 83.7322C13.7646 83.7322 14.6091 84.6153 14.6091 86.0539Z" fill="white"/>
<path d="M19.7529 88.816C19.274 89.4615 18.5103 89.7779 17.5525 89.7779C16.3085 89.7779 15.5107 88.9861 15.5107 87.9497C15.5107 86.9132 16.3424 86.2523 17.758 86.241H19.7303V85.8895C19.7303 85.0176 19.1833 84.4972 18.1221 84.4972C17.4604 84.4972 16.8469 84.7461 16.2178 85.1765L15.8409 84.531C16.6173 84.022 17.2663 83.7266 18.2935 83.7266C19.777 83.7266 20.5974 84.5085 20.6087 85.7882L20.6201 89.7259H19.7529V88.816ZM19.7416 87.6727V86.9597H17.8713C16.8681 86.9597 16.3424 87.2648 16.3424 87.9215C16.3424 88.5783 16.8794 89.0086 17.7225 89.0086C18.7385 89.0086 19.5135 88.4995 19.7416 87.6727Z" fill="white"/>
<path d="M31.9695 86.0542V89.733H31.0805V86.2919C31.0805 85.2273 30.4532 84.6043 29.4144 84.6043C28.1719 84.638 27.4521 85.5212 27.4521 86.8009V89.733H26.5509V86.2919C26.5509 85.2273 25.9358 84.6043 24.8862 84.6043C23.6545 84.638 22.9124 85.5212 22.9124 86.8009V89.733H22.0339V83.7675H22.9124V85.1148C23.3118 84.1852 24.1226 83.7436 25.2052 83.7324C26.3387 83.7324 27.1108 84.3104 27.3618 85.2947C27.7382 84.2428 28.5813 83.7479 29.7348 83.7324C31.1372 83.7324 31.9695 84.6155 31.9695 86.0542Z" fill="white"/>
<path d="M39.5217 86.7669C39.5217 88.5333 38.3581 89.7666 36.6575 89.7666C35.585 89.7666 34.7648 89.28 34.3196 88.4531V89.7328H33.4298V81.333H34.3196V85.0569C34.7648 84.2201 35.585 83.7322 36.6353 83.7322C38.3352 83.7322 39.5217 84.9782 39.5217 86.7669ZM38.6205 86.7445C38.6205 85.4647 37.7301 84.5253 36.4747 84.5253C35.2193 84.5253 34.3196 85.4535 34.3196 86.7445C34.3196 88.0354 35.21 88.9636 36.4747 88.9636C37.7401 88.9636 38.6205 88.0354 38.6205 86.7445Z" fill="white"/>
<path d="M45.6917 87.0945H40.7878C40.947 88.2618 41.8023 88.9973 42.9659 88.9973C43.3115 89.0057 43.6549 88.9431 43.9746 88.8134C44.2944 88.6836 44.584 88.4896 44.8249 88.2435L45.3167 88.7652C44.7496 89.3995 43.8994 89.7609 42.8978 89.7609C41.1298 89.7609 39.9096 88.5275 39.9096 86.75C39.9096 84.9724 41.1406 83.7377 42.8849 83.7377C44.8249 83.7321 45.7842 85.0681 45.6917 87.0945ZM44.8973 86.3703C44.8392 85.227 44.0642 84.5028 42.8892 84.5028C41.7557 84.5028 40.9269 85.2382 40.7907 86.3703H44.8973Z" fill="white"/>
<path d="M47.5399 85.0908C47.9392 84.2203 48.6805 83.7436 49.6964 83.7324V84.6268C48.4296 84.6043 47.6431 85.3862 47.5399 86.5632V89.733H46.6501V83.7675H47.5399V85.0908Z" fill="white"/>
<path d="M58.3651 86.7446C58.3651 88.5334 57.0998 89.7667 55.3203 89.7667C53.5409 89.7667 52.274 88.5334 52.274 86.7446C52.274 84.9557 53.5409 83.7435 55.3203 83.7435C57.0998 83.7435 58.3651 84.967 58.3651 86.7446ZM53.1637 86.7558C53.1637 88.0693 54.0649 88.975 55.3203 88.975C56.5757 88.975 57.4754 88.0693 57.4754 86.7558C57.4754 85.4423 56.5742 84.5479 55.3203 84.5479C54.0664 84.5479 53.1637 85.4536 53.1637 86.7558Z" fill="white"/>
<path d="M60.3839 83.181V83.9502H62.1074V84.6758H60.3839V89.7385H59.5056V84.6758H58.7306V83.9502H59.5056V83.2934C59.5056 81.9926 60.4298 81.2895 61.4342 81.2895C61.8974 81.296 62.3469 81.4433 62.7233 81.7114L62.3576 82.4244C62.0917 82.2339 61.7733 82.1275 61.4457 82.1192C60.8628 82.1136 60.3839 82.4876 60.3839 83.181Z" fill="white"/>
<path d="M71.4599 82.9405L70.9129 83.631C70.2899 83.0012 69.4403 82.6426 68.5513 82.634C66.7489 82.634 65.3007 84.0163 65.3007 85.7587C65.3007 87.5011 66.7489 88.8835 68.5513 88.8835C69.431 88.8744 70.2755 88.5347 70.9129 87.9329L71.4714 88.5558C70.6727 89.3187 69.6138 89.755 68.5061 89.7779C66.2019 89.7779 64.3773 88.0004 64.3773 85.7587C64.3773 83.5396 66.2191 81.786 68.5398 81.786C69.6253 81.7928 70.6677 82.205 71.4599 82.9405Z" fill="white"/>
<path d="M77.7118 86.7446C77.7118 88.5334 76.4449 89.7667 74.6655 89.7667C72.8853 89.7667 71.6199 88.5334 71.6199 86.7446C71.6199 84.9557 72.8868 83.7435 74.6655 83.7435C76.4435 83.7435 77.7118 84.967 77.7118 86.7446ZM72.5104 86.7558C72.5104 88.0693 73.4108 88.975 74.6655 88.975C75.9194 88.975 76.822 88.0693 76.822 86.7558C76.822 85.4423 75.9208 84.5479 74.6655 84.5479C73.4094 84.5479 72.5104 85.4536 72.5104 86.7558Z" fill="white"/>
<path d="M88.6385 86.0542V89.733H87.7488V86.2919C87.7488 85.2273 87.1229 84.6043 86.084 84.6043C84.8401 84.638 84.1218 85.5212 84.1218 86.8009V89.733H83.2206V86.2919C83.2206 85.2273 82.604 84.6043 81.5551 84.6043C80.3227 84.638 79.5814 85.5212 79.5814 86.8009V89.733H78.7031V83.7675H79.5814V85.1148C79.9814 84.1852 80.7901 83.7436 81.8742 83.7324C83.0076 83.7324 83.7798 84.3104 84.0307 85.2947C84.4078 84.2428 85.2509 83.7479 86.4031 83.7324C87.8068 83.7324 88.6385 84.6155 88.6385 86.0542Z" fill="white"/>
<path d="M99.9771 86.0542V89.733H99.0888V86.2919C99.0888 85.2273 98.4608 84.6043 97.4219 84.6043C96.1795 84.638 95.4597 85.5212 95.4597 86.8009V89.733H94.5585V86.2919C94.5585 85.2273 93.9433 84.6043 92.8937 84.6043C91.6627 84.638 90.92 85.5212 90.92 86.8009V89.733H90.0417V83.7675H90.92V85.1148C91.3193 84.1852 92.1302 83.7436 93.2128 83.7324C94.3463 83.7324 95.1184 84.3104 95.3693 85.2947C95.7457 84.2428 96.5888 83.7479 97.7424 83.7324C99.1454 83.7324 99.9771 84.6155 99.9771 86.0542Z" fill="white"/>
<path d="M106.56 87.0948H101.655C101.815 88.262 102.669 88.9975 103.833 88.9975C104.178 89.0067 104.521 88.9451 104.842 88.8163C105.161 88.6876 105.452 88.4945 105.693 88.2493L106.183 88.7711C105.617 89.4053 104.766 89.7668 103.765 89.7668C101.996 89.7668 100.777 88.5334 100.777 86.7559C100.777 84.9783 102.007 83.7436 103.752 83.7436C105.693 83.7323 106.65 85.0683 106.56 87.0948ZM105.761 86.3705C105.704 85.2272 104.928 84.503 103.753 84.503C102.613 84.503 101.791 85.2385 101.655 86.3705H105.761Z" fill="white"/>
<path d="M108.408 85.0908C108.807 84.2203 109.541 83.7436 110.563 83.7324V84.6268C109.297 84.6043 108.509 85.3862 108.408 86.5632V89.733H107.525V83.7675H108.415L108.408 85.0908Z" fill="white"/>
<path d="M115.884 84.6269L115.394 85.2499C114.912 84.7955 114.268 84.5476 113.603 84.5594C112.359 84.5594 111.469 85.4538 111.469 86.756C111.469 88.0583 112.359 88.9639 113.603 88.9639C114.39 88.9639 115.04 88.6911 115.462 88.1933L115.975 88.7375C115.439 89.383 114.606 89.7669 113.566 89.7669C111.821 89.7669 110.591 88.5336 110.591 86.756C110.591 84.9785 111.834 83.7438 113.566 83.7438C114.532 83.7325 115.33 84.0616 115.884 84.6269Z" fill="white"/>
<path d="M121.914 87.0948H117.008C117.169 88.262 118.023 88.9975 119.186 88.9975C119.532 89.0067 119.875 88.9451 120.195 88.8163C120.515 88.6876 120.805 88.4945 121.047 88.2493L121.537 88.7711C120.97 89.4053 120.12 89.7668 119.118 89.7668C117.35 89.7668 116.13 88.5334 116.13 86.7559C116.13 84.9783 117.361 83.7436 119.105 83.7436C121.047 83.7323 122.004 85.0683 121.914 87.0948ZM121.115 86.3705C121.058 85.2272 120.282 84.503 119.107 84.503C117.973 84.503 117.144 85.2385 117.008 86.3705H121.115Z" fill="white"/>
</svg>
